<svg xmlns="http://www.w3.org/2000/svg" viewBox="0 0 512 512" width="512" height="512" role="img" aria-label="Pocket Station">
  <defs>
    <clipPath id="targetClip">
      <rect x="40" y="32" width="457" height="465" rx="118"/>
    </clipPath>
    <linearGradient id="shell" x1="40" y1="32" x2="496" y2="496" gradientUnits="userSpaceOnUse">
      <stop offset="0" stop-color="#061222"/>
      <stop offset="0.58" stop-color="#040914"/>
      <stop offset="1" stop-color="#02050c"/>
    </linearGradient>
    <linearGradient id="panel" x1="118" y1="116" x2="394" y2="392" gradientUnits="userSpaceOnUse">
      <stop offset="0" stop-color="#0b2538"/>
      <stop offset="1" stop-color="#06101e"/>
    </linearGradient>
    <linearGradient id="phone" x1="132" y1="62" x2="380" y2="444" gradientUnits="userSpaceOnUse">
      <stop offset="0" stop-color="#102a3e"/>
      <stop offset="0.55" stop-color="#08182b"/>
      <stop offset="1" stop-color="#040a15"/>
    </linearGradient>
    <linearGradient id="screen" x1="154" y1="106" x2="358" y2="400" gradientUnits="userSpaceOnUse">
      <stop offset="0" stop-color="#11364c"/>
      <stop offset="0.58" stop-color="#0b1d32"/>
      <stop offset="1" stop-color="#06101f"/>
    </linearGradient>
    <linearGradient id="cyan" x1="40" y1="32" x2="496" y2="496" gradientUnits="userSpaceOnUse">
      <stop offset="0" stop-color="#18d9ff"/>
      <stop offset="0.55" stop-color="#22f0c8"/>
      <stop offset="1" stop-color="#139cff"/>
    </linearGradient>
    <linearGradient id="magenta" x1="76" y1="68" x2="440" y2="436" gradientUnits="userSpaceOnUse">
      <stop offset="0" stop-color="#f024d6"/>
      <stop offset="1" stop-color="#e716c7"/>
    </linearGradient>
    <linearGradient id="letter" x1="148" y1="176" x2="366" y2="326" gradientUnits="userSpaceOnUse">
      <stop offset="0" stop-color="#25f6dc"/>
      <stop offset="0.58" stop-color="#18e49c"/>
      <stop offset="1" stop-color="#22c4f4"/>
    </linearGradient>
    <filter id="letterGlow" x="-24%" y="-24%" width="148%" height="148%">
      <feGaussianBlur stdDeviation="5" result="blur"/>
      <feColorMatrix in="blur" type="matrix" values="0 0 0 0 0.08 0 0 0 0 0.95 0 0 0 0 0.72 0 0 0 0.72 0" result="coloredBlur"/>
      <feMerge>
        <feMergeNode in="coloredBlur"/>
        <feMergeNode in="SourceGraphic"/>
      </feMerge>
    </filter>
  </defs>

  <g clip-path="url(#targetClip)">
    <rect x="40" y="32" width="456" height="464" rx="118" fill="url(#shell)"/>
    <rect x="45.5" y="37.5" width="445" height="453" rx="112" fill="none" stroke="url(#cyan)" stroke-width="11"/>
    <rect x="76.5" y="68.5" width="383" height="391" rx="92" fill="none" stroke="url(#magenta)" stroke-width="10" opacity="0.86"/>

    <rect x="118" y="116" width="276" height="276" rx="54" fill="url(#panel)" opacity="0.96"/>
    <path d="M128 116H186M326 116H384M128 394H186M326 394H384" stroke="#16d4ff" stroke-width="13" stroke-linecap="square" opacity="0.95"/>
    <path d="M326 116H384M128 394H186" stroke="#e719ca" stroke-width="13" stroke-linecap="square" opacity="0.95"/>
    <path d="M164 104L336 408" stroke="#16d4ff" stroke-width="4" stroke-linecap="round" opacity="0.58"/>
    <path d="M350 112L176 408" stroke="#e719ca" stroke-width="4" stroke-linecap="round" opacity="0.48"/>

    <rect x="132" y="62" width="248" height="392" rx="48" fill="url(#phone)"/>
    <rect x="151" y="101" width="210" height="310" rx="30" fill="url(#screen)" stroke="#12324a" stroke-width="2.5"/>
    <path d="M188 62H324V70C324 85.464 311.464 98 296 98H216C200.536 98 188 85.464 188 70V62Z" fill="#07111f"/>
    <rect x="224" y="78" width="64" height="7" rx="3.5" fill="#20e3d0" opacity="0.78"/>
    <circle cx="256" cy="433" r="9" fill="#10273b" stroke="#18d9ff" stroke-width="3.5" opacity="0.9"/>

    <path d="M170 145H222M292 145H342M170 368H222M292 368H342" stroke="#18d9ff" stroke-width="9" stroke-linecap="square" opacity="0.84"/>
    <path d="M292 145H342M170 368H222" stroke="#e719ca" stroke-width="9" stroke-linecap="square" opacity="0.9"/>
    <path d="M180 175L332 350" stroke="#18d9ff" stroke-width="3.5" stroke-linecap="round" opacity="0.38"/>
    <path d="M332 175L180 350" stroke="#e719ca" stroke-width="3.5" stroke-linecap="round" opacity="0.36"/>

    <g filter="url(#letterGlow)">
      <text x="256" y="305" text-anchor="middle"
            font-family="Arial Black, Arial, sans-serif" font-size="136"
            font-weight="900" letter-spacing="-5"
            fill="url(#letter)">PS</text>
    </g>
  </g>
</svg>
